<svg width="20" height="21" viewBox="0 0 20 21" fill="none" xmlns="http://www.w3.org/2000/svg">
<g clip-path="url(#clip0_248_116)">
<path d="M10.0031 1.00006L10.0031 1.00006C15.2745 1.01836 19.5183 5.28205 19.5 10.5417C19.4817 15.8009 15.2209 20.0367 9.90239 20.0001C4.68167 19.9635 0.500228 15.7217 0.5 10.4861C0.509387 5.24363 4.78291 0.981774 10.0031 1.00006ZM4.37002 14.5232C4.13716 15.0294 4.27286 15.5651 4.62091 15.9039L4.26232 16.2625H5.46943C5.72202 16.2625 5.95873 16.1539 6.09746 16.0845L6.09835 16.084C8.03327 15.1118 9.97744 14.1397 11.9214 13.1773L11.9232 13.1765C12.2784 12.9988 12.5263 12.733 12.6957 12.3944L12.6972 12.3912C13.0621 11.6485 13.4348 10.9075 13.8086 10.1641C13.9961 9.79131 14.1839 9.4179 14.3711 9.04336L14.3722 9.0413C14.5786 8.62363 14.7875 8.20579 14.997 7.78674L14.9972 7.78649C15.2063 7.36815 15.4161 6.9486 15.6236 6.52888C16.0074 5.75926 15.5832 4.87345 14.7208 4.74326L14.7208 4.74325L14.7168 4.74269C14.3562 4.69116 14.0567 4.84247 13.8989 4.92218C13.89 4.92666 13.8816 4.93091 13.8736 4.93489L13.8728 4.93534C11.9571 5.89797 10.0319 6.86059 8.11624 7.81359L8.11534 7.81404C7.76759 7.98792 7.521 8.23734 7.34022 8.57307L7.33576 8.58135L7.33162 8.58979C6.77539 9.72284 6.20984 10.85 5.64386 11.978C5.41727 12.4297 5.1906 12.8814 4.96444 13.3337L4.96442 13.3337L4.96227 13.3381C4.89271 13.4807 4.81238 13.6375 4.72945 13.7994C4.60669 14.039 4.47823 14.2897 4.37061 14.5219L4.37002 14.5232Z" stroke="black"/>
<mask id="path-2-inside-1_248_116" fill="white">
<path d="M7.06787 13.4225C7.48193 12.604 7.8671 11.8336 8.25227 11.0633C8.48337 10.6011 8.71448 10.1293 8.94558 9.66705C8.99373 9.58039 9.04187 9.51298 9.13816 9.46483C10.3515 8.85819 11.5744 8.25155 12.7877 7.6449C12.8165 7.62564 12.8551 7.61601 12.8936 7.60638C12.9225 7.69305 12.8647 7.74119 12.8454 7.79897C12.258 8.97374 11.6707 10.1485 11.0833 11.3233C11.0351 11.4196 10.987 11.4966 10.8811 11.5544C9.65815 12.161 8.43523 12.7773 7.21231 13.3839C7.18342 13.3936 7.16416 13.4032 7.0775 13.4321L7.06787 13.4225Z"/>
</mask>
<path d="M7.06787 13.4225L-3.63994 8.00557L-7.56347 15.7614L-1.41761 21.9075L7.06787 13.4225ZM8.94558 9.66705L-1.54431 3.83933L-1.67094 4.06727L-1.78755 4.30049L8.94558 9.66705ZM12.7877 7.6449L18.1542 18.378L18.8224 18.0439L19.4441 17.6295L12.7877 7.6449ZM12.8936 7.60638L24.2778 3.81165L20.7637 -6.73047L9.98315 -4.03533L12.8936 7.60638ZM12.8454 7.79897L23.5786 13.1655L23.96 12.4028L24.2296 11.5937L12.8454 7.79897ZM11.0833 11.3233L21.8164 16.6898L11.0833 11.3233ZM10.8811 11.5544L16.2137 22.3044L16.4226 22.2008L16.6273 22.0891L10.8811 11.5544ZM7.21231 13.3839L11.007 24.7681L11.798 24.5045L12.545 24.1339L7.21231 13.3839ZM7.0775 13.4321L-1.40798 21.9172L3.83622 27.1616L10.8722 24.8163L7.0775 13.4321ZM17.7757 18.8394C18.2044 17.992 18.6017 17.1972 18.9854 16.4299L-2.48086 5.69673C-2.86753 6.47008 -3.24051 7.216 -3.63994 8.00557L17.7757 18.8394ZM18.9854 16.4299C19.1139 16.1728 19.2405 15.917 19.3541 15.6873C19.4716 15.45 19.5761 15.2388 19.6787 15.0336L-1.78755 4.30049C-1.91606 4.5575 -2.04263 4.81333 -2.15628 5.043C-2.27374 5.28035 -2.37826 5.49154 -2.48086 5.69673L18.9854 16.4299ZM19.4355 15.4948C19.3122 15.7166 18.8284 16.5879 17.9751 17.5437C17.0176 18.6161 15.8449 19.5279 14.5047 20.198L3.7716 -1.26829C0.489213 0.372902 -1.03816 2.92826 -1.54431 3.83933L19.4355 15.4948ZM14.5047 20.198C15.1015 19.8996 15.702 19.6005 16.3125 19.2965C16.9201 18.9939 17.5377 18.6863 18.1542 18.378L7.4211 -3.08822C6.82436 -2.78986 6.22382 -2.49077 5.61334 -2.18674C5.00572 -1.88413 4.38816 -1.57657 3.7716 -1.26829L14.5047 20.198ZM19.4441 17.6295C18.2317 18.4378 17.1473 18.8344 16.6317 19.0062C16.1352 19.1717 15.6958 19.2751 15.804 19.2481L9.98315 -4.03533C9.98287 -4.03525 9.95119 -4.02736 9.91512 -4.01816C9.87622 -4.00825 9.81415 -3.99225 9.73859 -3.97186C9.59359 -3.93274 9.3452 -3.86314 9.04231 -3.76218C8.4906 -3.57828 7.37254 -3.16723 6.13126 -2.3397L19.4441 17.6295ZM1.50938 11.4011C1.00708 9.89422 0.793941 8.24026 0.953641 6.54165C1.10747 4.90552 1.56909 3.64131 1.90379 2.88063C2.1672 2.28197 2.51364 1.67625 2.3434 1.98668C2.32047 2.02851 1.8393 2.87004 1.46124 4.00424L24.2296 11.5937C23.8612 12.699 23.3945 13.5129 23.3869 13.5267C23.232 13.8091 23.5947 13.1751 23.8713 12.5464C24.2193 11.7556 24.6911 10.4595 24.8483 8.78818C25.0113 7.05436 24.7945 5.36188 24.2778 3.81165L1.50938 11.4011ZM2.11231 2.43241C1.63088 3.39526 2.37346 1.91009 1.89204 2.87295C1.70596 3.2451 1.85785 2.94133 1.67177 3.31348C1.61823 3.42056 1.50504 3.64695 1.4515 3.75402C1.3574 3.94222 1.32533 4.00637 1.23123 4.19456C0.948939 4.75914 1.29325 4.07052 1.01096 4.6351C0.880559 4.89591 0.921093 4.81484 0.790691 5.07564C0.41963 5.81776 0.941483 4.77406 0.570421 5.51618C0.472233 5.71256 0.613542 5.42994 0.515354 5.62632C0.2231 6.21082 0.75254 5.15194 0.460286 5.73645C0.431761 5.7935 0.461278 5.73447 0.432753 5.79152C0.431606 5.79381 0.430458 5.79611 0.429311 5.7984C0.428164 5.8007 0.427017 5.80299 0.425869 5.80528C0.405979 5.84507 0.438876 5.77927 0.418986 5.81905C0.417839 5.82135 0.416691 5.82364 0.415544 5.82594C0.414397 5.82823 0.41325 5.83052 0.412102 5.83282C0.405987 5.84505 0.411335 5.83435 0.405219 5.84659C0.404072 5.84888 0.402925 5.85117 0.401777 5.85347C0.40063 5.85576 0.399483 5.85806 0.398336 5.86035C0.397188 5.86265 0.396041 5.86494 0.394894 5.86724C0.393747 5.86953 0.392599 5.87182 0.391452 5.87412C0.390305 5.87641 0.389158 5.87871 0.38801 5.881C0.386863 5.8833 0.385716 5.88559 0.384569 5.88789C0.383422 5.89018 0.382274 5.89247 0.381127 5.89477C0.37998 5.89706 0.378833 5.89936 0.377685 5.90165C0.376538 5.90395 0.375391 5.90624 0.374244 5.90854C0.373096 5.91083 0.371949 5.91313 0.370802 5.91542C0.357037 5.94295 0.377684 5.90166 0.363918 5.92919C0.362771 5.93148 0.361624 5.93378 0.360477 5.93607C0.35933 5.93836 0.358182 5.94066 0.357035 5.94295C0.355888 5.94525 0.354741 5.94754 0.353593 5.94984C0.352446 5.95213 0.351299 5.95443 0.350152 5.95672L21.8164 16.6898C22.2015 15.9196 21.6515 17.0196 22.0367 16.2493C22.0759 16.1708 22.0525 16.2177 22.0917 16.1392C22.1243 16.074 22.1142 16.0942 22.1468 16.029C22.3416 15.6394 22.0621 16.1984 22.2569 15.8088C22.6333 15.056 22.3211 15.6805 22.6975 14.9277C23.0261 14.2705 22.479 15.3646 22.8076 14.7074C22.9219 14.4788 22.7484 14.8259 22.8627 14.5973C22.9613 14.4001 22.8192 14.6843 22.9178 14.4872C23.1319 14.0588 22.9239 14.4749 23.138 14.0466C23.1544 14.0139 23.1355 14.0517 23.1518 14.0191C23.2253 13.8721 23.0921 14.1385 23.1656 13.9915C23.1935 13.9356 23.1513 14.02 23.1793 13.964C23.2332 13.8562 23.1323 14.058 23.1862 13.9502C23.3699 13.5828 23.0093 14.304 23.1931 13.9365C23.3708 13.5811 23.0705 14.1817 23.2482 13.8263C23.3552 13.6122 23.1961 13.9304 23.3032 13.7162C23.3904 13.5419 23.2711 13.7804 23.3583 13.6061C23.8397 12.6432 23.0971 14.1284 23.5786 13.1655L2.11231 2.43241ZM0.350152 5.95672C0.429303 5.79842 0.87382 4.89127 1.69047 3.88616C2.62013 2.74197 3.78439 1.75624 5.13484 1.01964L16.6273 22.0891C19.9669 20.2675 21.3977 17.5272 21.8164 16.6898L0.350152 5.95672ZM5.54838 0.804384C4.91714 1.11752 4.28874 1.43173 3.68012 1.73604C3.06582 2.04319 2.4713 2.34044 1.87963 2.63395L12.545 24.1339C13.1762 23.8208 13.8046 23.5066 14.4133 23.2023C15.0276 22.8951 15.6221 22.5979 16.2137 22.3044L5.54838 0.804384ZM3.41758 1.99975C3.21403 2.0676 3.05465 2.12669 2.97773 2.15553C2.95937 2.16242 2.94439 2.16808 2.93568 2.17138C2.93117 2.17309 2.92741 2.17452 2.9251 2.1754C2.92391 2.17584 2.92287 2.17624 2.9222 2.17649C2.92106 2.17693 2.92145 2.17678 2.9208 2.17703C2.91796 2.1781 2.93325 2.17229 2.95306 2.16486C3.00081 2.14695 3.0593 2.12544 3.12488 2.10222C3.18723 2.08014 3.24063 2.06194 3.28277 2.04789L10.8722 24.8163C10.9577 24.7878 11.046 24.7576 11.1372 24.7253C11.2317 24.6918 11.3131 24.6619 11.3801 24.6367C11.4095 24.6257 11.4335 24.6166 11.4388 24.6146C11.4436 24.6127 11.4396 24.6143 11.4357 24.6157C11.4308 24.6176 11.4195 24.6219 11.4048 24.6274C11.3423 24.6508 11.1961 24.7051 11.007 24.7681L3.41758 1.99975ZM15.563 4.94702L15.5534 4.93739L-1.41761 21.9075L-1.40798 21.9172L15.563 4.94702Z" fill="black" mask="url(#path-2-inside-1_248_116)"/>
</g>
<defs>
<clipPath id="clip0_248_116">
<rect width="20" height="20" fill="white" transform="translate(0 0.5)"/>
</clipPath>
</defs>
</svg>
