<svg width="21" height="21" viewBox="0 0 21 21" fill="none" xmlns="http://www.w3.org/2000/svg">
<path d="M14.5833 16.3417C14.325 16.3417 14.0667 16.2666 13.8417 16.1166L13.0417 15.5916C12.8167 15.4416 12.7084 15.1583 12.7834 14.9C12.8417 14.7083 12.8667 14.4833 12.8667 14.2333V10.8416C12.8667 9.48329 12.0167 8.63332 10.6584 8.63332H5.00002C4.90002 8.63332 4.80835 8.64167 4.71668 8.65C4.54169 8.65834 4.37502 8.59999 4.24169 8.48333C4.10836 8.36666 4.04169 8.2 4.04169 8.025V5.71665C4.04169 3.26665 5.75835 1.54999 8.20835 1.54999H15.2917C17.7417 1.54999 19.4584 3.26665 19.4584 5.71665V9.96663C19.4584 11.175 19.05 12.2416 18.3 12.975C17.7 13.5833 16.8667 13.975 15.9167 14.0916V15.0166C15.9167 15.5166 15.6417 15.9667 15.2083 16.2C15.0083 16.2917 14.7917 16.3417 14.5833 16.3417ZM14.0834 14.775L14.625 15.0833C14.675 15.0583 14.675 15.0166 14.675 15.0083V13.5C14.675 13.1583 14.9583 12.875 15.3 12.875C16.175 12.875 16.9167 12.6 17.425 12.0833C17.95 11.5667 18.2167 10.8333 18.2167 9.95829V5.70831C18.2167 3.93331 17.075 2.79165 15.3 2.79165H8.21668C6.44168 2.79165 5.30002 3.93331 5.30002 5.70831V7.37498H10.6667C12.7 7.37498 14.125 8.8 14.125 10.8333V14.225C14.1167 14.4166 14.1084 14.6 14.0834 14.775Z" fill="#484C52"/>
<path d="M5.55836 19.4583C5.37503 19.4583 5.18336 19.4167 5.00836 19.325C4.61669 19.1167 4.37502 18.7167 4.37502 18.2667V17.6333C3.64168 17.5167 2.99169 17.2083 2.50836 16.725C1.87502 16.0916 1.54169 15.225 1.54169 14.225V10.8334C1.54169 8.95002 2.77501 7.56668 4.60835 7.39168C4.74168 7.38335 4.86668 7.375 5.00002 7.375H10.6584C12.6917 7.375 14.1167 8.80002 14.1167 10.8334V14.225C14.1167 14.5916 14.075 14.9333 13.9833 15.2417C13.6083 16.7417 12.3334 17.6833 10.6584 17.6833H8.58335L6.22502 19.25C6.02502 19.3917 5.79169 19.4583 5.55836 19.4583ZM5.00002 8.625C4.90002 8.625 4.80835 8.63335 4.71668 8.64168C3.51668 8.75002 2.79169 9.57502 2.79169 10.8334V14.225C2.79169 14.8916 3.00002 15.45 3.39169 15.8416C3.77502 16.225 4.33335 16.4333 5.00002 16.4333C5.34168 16.4333 5.62502 16.7167 5.62502 17.0583V18.15L8.04169 16.5417C8.14169 16.475 8.26669 16.4333 8.39169 16.4333H10.6584C11.7584 16.4333 12.5333 15.8833 12.775 14.9167C12.8334 14.7083 12.8667 14.475 12.8667 14.225V10.8334C12.8667 9.47502 12.0167 8.625 10.6584 8.625H5.00002Z" fill="#484C52"/>
</svg>
