<svg width="24" height="25" viewBox="0 0 24 25" fill="none" xmlns="http://www.w3.org/2000/svg">
<path d="M19.34 14.7462L18.34 13.0862C18.13 12.7162 17.94 12.0162 17.94 11.6062V9.07619C17.94 6.72619 16.56 4.69619 14.57 3.74619C14.05 2.82619 13.09 2.25619 11.99 2.25619C10.9 2.25619 9.92 2.84619 9.4 3.77619C7.45 4.74619 6.1 6.75619 6.1 9.07619V11.6062C6.1 12.0162 5.91 12.7162 5.7 13.0762L4.69 14.7462C4.29 15.4162 4.2 16.1562 4.45 16.8362C4.69 17.5062 5.26 18.0262 6 18.2762C7.94 18.9362 9.98 19.2562 12.02 19.2562C14.06 19.2562 16.1 18.9362 18.04 18.2862C18.74 18.0562 19.28 17.5262 19.54 16.8362C19.8 16.1462 19.73 15.3862 19.34 14.7462Z" fill="white"/>
<path d="M14.83 20.2662C14.41 21.4262 13.3 22.2562 12 22.2562C11.21 22.2562 10.43 21.9362 9.87999 21.3662C9.55999 21.0662 9.31999 20.6662 9.17999 20.2562C9.30999 20.2762 9.43999 20.2862 9.57999 20.3062C9.80999 20.3362 10.05 20.3662 10.29 20.3862C10.86 20.4362 11.44 20.4662 12.02 20.4662C12.59 20.4662 13.16 20.4362 13.72 20.3862C13.93 20.3662 14.14 20.3562 14.34 20.3262C14.5 20.3062 14.66 20.2862 14.83 20.2662Z" fill="white"/>
</svg>
