<svg width="21" height="21" viewBox="0 0 21 21" fill="none" xmlns="http://www.w3.org/2000/svg">
<path d="M15.1833 8.51666H10.8083C10.4667 8.51666 10.1833 8.23333 10.1833 7.89166C10.1833 7.55 10.4667 7.26666 10.8083 7.26666H15.1833C15.525 7.26666 15.8083 7.55 15.8083 7.89166C15.8083 8.23333 15.5333 8.51666 15.1833 8.51666Z" fill="#484C52"/>
<path d="M6.43334 9.15002C6.27501 9.15002 6.11667 9.09168 5.99167 8.96668L5.36667 8.34168C5.12501 8.10002 5.12501 7.70002 5.36667 7.45835C5.60834 7.21668 6.00834 7.21668 6.25001 7.45835L6.43334 7.64168L7.86667 6.20835C8.10834 5.96668 8.50834 5.96668 8.75001 6.20835C8.99167 6.45002 8.99167 6.85002 8.75001 7.09168L6.87501 8.96668C6.75834 9.08335 6.60001 9.15002 6.43334 9.15002Z" fill="#484C52"/>
<path d="M15.1833 14.35H10.8083C10.4667 14.35 10.1833 14.0666 10.1833 13.725C10.1833 13.3833 10.4667 13.1 10.8083 13.1H15.1833C15.525 13.1 15.8083 13.3833 15.8083 13.725C15.8083 14.0666 15.5333 14.35 15.1833 14.35Z" fill="#484C52"/>
<path d="M6.43334 14.9833C6.27501 14.9833 6.11667 14.925 5.99167 14.8L5.36667 14.175C5.12501 13.9333 5.12501 13.5333 5.36667 13.2917C5.60834 13.05 6.00834 13.05 6.25001 13.2917L6.43334 13.475L7.86667 12.0417C8.10834 11.8 8.50834 11.8 8.75001 12.0417C8.99167 12.2833 8.99167 12.6833 8.75001 12.925L6.87501 14.8C6.75834 14.9167 6.60001 14.9833 6.43334 14.9833Z" fill="#484C52"/>
<path d="M13 19.4584H7.99999C3.47499 19.4584 1.54166 17.525 1.54166 13V8.00002C1.54166 3.47502 3.47499 1.54169 7.99999 1.54169H13C17.525 1.54169 19.4583 3.47502 19.4583 8.00002V13C19.4583 17.525 17.525 19.4584 13 19.4584ZM7.99999 2.79169C4.15832 2.79169 2.79166 4.15835 2.79166 8.00002V13C2.79166 16.8417 4.15832 18.2084 7.99999 18.2084H13C16.8417 18.2084 18.2083 16.8417 18.2083 13V8.00002C18.2083 4.15835 16.8417 2.79169 13 2.79169H7.99999Z" fill="#484C52"/>
</svg>
